<?xml version="1.0" encoding="utf-8"?>
<!-- Generator: Adobe Illustrator 22.1.0, SVG Export Plug-In . SVG Version: 6.00 Build 0)  -->
<svg version="1.1" id="Layer_1" xmlns="http://www.w3.org/2000/svg" xmlns:xlink="http://www.w3.org/1999/xlink" x="0px" y="0px"
	 viewBox="0 0 200 96" style="enable-background:new 0 0 200 96;" xml:space="preserve">
<style type="text/css">
	.st0{fill-rule:evenodd;clip-rule:evenodd;fill:#A32220;}
	.st1{fill:#A32220;}
	.st2{fill:#6E6E6E;}
</style>
<g>
	<path class="st0" d="M34.4,25.4l-2.1,1.5c-0.3,1.3-0.9,1.7-0.9,3.3v0.6c0,8.8,18.9,0.3,18.9,6.7c0,6.6-4.8,4.9-11.3,4.9
		c-2.3,0-6-0.3-8.1,0.1c-1.5,0.3-7.1,0.9-7.1-0.7c0-5,5.5-12.7,5.5-18c0-1.8-1.6-3.3-3.3-3.3h-0.6c-5.2,0-6.2,7.1-7.7,11.2
		c-1,2.7-4.5,11.7-4.5,14.7c0,3.3,2.9,5.8,6.4,5.8h32c5.8,0,8.2-7.6,8.2-14l0.1-0.3l-0.7-4.5c-0.4-0.4-0.9-0.8-0.9-1.5v-0.6
		c0-0.8,1-1.9,1.8-2.1l0.6,3c2.5,3.6,2.4,20.1,7.9,20.1H70c3.6,0,5.7-6.2,7.1-9c1.1-2.3,4.6-9.3,5.1-11.4h0.6
		c0.1,2.3,2.4,9.7,3.1,12.4c1.1,4.5,2.1,8,7.9,8l55.3,0l2.5-9.4h-46.3c-2,0-2.7-0.5-3.3-1.8c0.9-3.9,3.4-8.9,5-12.7
		c1.1-2.7,3.5-11,6.6-11h18c0.7,0,1.2,0.5,1.2,1.2v0.9c0,4.7-4,11.7-4,16.1V36c0,1.1,0.8,2.4,1.8,2.4h1.8c3.6,0,5.4-3.8,6.1-6.7
		l1.8-4.3c0.3-3.3,3.7-7.9,3.7-11.9v-0.3c0-5.4-3.3-7.6-8.8-7.6h-25.3c-6,0-7.6,7.9-9.6,12.3c-1.1,2.4-5.4,14.7-7.1,15.1
		c-1.1-4.9-2.2-9.5-3.5-14.5c-0.8-3.3-2-12.9-5.4-12.9H84c-2.5,0-9.4,19.6-11,22.8l-1.9,4.5l-1.5-5.1c-0.8-1.2-3.1-11.7-3.7-14
		C64.9,11.1,63,7.4,57,7.4H11c-0.9,0-4.8,8.4-5.2,9.7l39.9-0.1l3.6,0.4c1.5,1,2.4,1.5,2.4,4v0.3C51.8,27.2,39.9,25.4,34.4,25.4"/>
	<path class="st1" d="M12.1,82.7H7.5v1.5h4.3c0.7,0,1.1,0.1,1.4,0.3c0.2,0.2,0.4,0.7,0.4,1.3v1c0,0.6-0.1,1.1-0.4,1.3
		c-0.2,0.2-0.7,0.3-1.4,0.3H7.6c-0.7,0-1.1-0.1-1.4-0.3c-0.2-0.2-0.4-0.7-0.4-1.3v-0.2l1.4-0.3v0.8h4.9v-1.6H7.8
		c-0.7,0-1.1-0.1-1.4-0.3c-0.2-0.2-0.4-0.7-0.4-1.3v-0.8c0-0.6,0.1-1.1,0.4-1.3c0.2-0.2,0.7-0.3,1.4-0.3h3.9c0.7,0,1.1,0.1,1.3,0.3
		c0.2,0.2,0.4,0.6,0.4,1.2v0.1l-1.4,0.3V82.7z"/>
	<rect x="19.2" y="81.5" class="st1" width="1.6" height="6.9"/>
	<path class="st1" d="M26.6,88.4v-6.9h1.1l4.9,4.1c0.2,0.1,0.3,0.3,0.4,0.4c0.1,0.1,0.2,0.2,0.3,0.4c0-0.4,0-0.7-0.1-0.8
		c0-0.2,0-0.3,0-0.4v-3.6h1.5v6.9h-1.1l-5.1-4.3c-0.1-0.1-0.2-0.2-0.3-0.3c-0.1-0.1-0.2-0.2-0.3-0.3c0,0.2,0,0.4,0,0.6
		c0,0.2,0,0.4,0,0.5v3.7H26.6z"/>
	<path class="st1" d="M46.3,82.7H42v4.4h4.4v-1.5l1.6,0.3v0.8c0,0.6-0.1,1.1-0.4,1.3c-0.2,0.2-0.7,0.3-1.4,0.3h-4.1
		c-0.7,0-1.1-0.1-1.4-0.3c-0.2-0.2-0.4-0.7-0.4-1.3v-3.7c0-0.6,0.1-1.1,0.4-1.3c0.2-0.2,0.7-0.3,1.4-0.3h4.1c0.7,0,1.1,0.1,1.4,0.3
		c0.2,0.2,0.4,0.7,0.4,1.3v0.7L46.3,84V82.7z"/>
	<polygon class="st1" points="53.5,88.4 53.5,81.5 60.6,81.5 60.6,82.7 55.1,82.7 55.1,84.2 58.3,84.2 58.3,85.4 55.1,85.4 
		55.1,87.1 60.7,87.1 60.7,88.4 	"/>
	<polygon class="st1" points="74.1,88.4 74.1,82.8 72.6,82.8 72.6,81.9 75.6,81.4 75.6,88.4 	"/>
	<path class="st1" d="M89.5,84.6c0-0.1,0-0.2,0-0.2c0-0.1,0-0.1,0-0.2c0-0.7-0.1-1.1-0.3-1.3c-0.2-0.2-0.6-0.2-1.2-0.2h-1.9
		c-0.5,0-0.8,0.1-1,0.2c-0.2,0.1-0.3,0.3-0.3,0.7v0.4c0,0.3,0.1,0.6,0.3,0.7c0.2,0.1,0.6,0.2,1.2,0.2c0.4,0,0.9,0,1.4,0
		C88.4,84.7,88.9,84.7,89.5,84.6 M89.4,85.7c-0.5,0.1-1,0.1-1.5,0.2c-0.5,0-1,0.1-1.6,0.1c-1.1,0-1.9-0.1-2.3-0.4
		c-0.4-0.3-0.6-0.7-0.6-1.4v-0.9c0-0.6,0.2-1,0.6-1.3c0.4-0.3,1-0.4,1.8-0.4h2.9c0.9,0,1.5,0.2,1.8,0.5c0.3,0.3,0.5,0.9,0.5,1.7v0.9
		c0,1.3-0.4,2.3-1.3,3c-0.9,0.7-2.2,1.1-3.8,1.1c-0.1,0-0.2,0-0.3,0c-0.1,0-0.1,0-0.2,0l-1-1.1h0.4c1.5,0,2.5-0.1,3.2-0.4
		C88.7,86.8,89.2,86.3,89.4,85.7z"/>
	<path class="st1" d="M102.1,84.6c0-0.1,0-0.2,0-0.2c0-0.1,0-0.1,0-0.2c0-0.7-0.1-1.1-0.3-1.3c-0.2-0.2-0.6-0.2-1.2-0.2h-1.9
		c-0.5,0-0.8,0.1-1,0.2c-0.2,0.1-0.3,0.3-0.3,0.7v0.4c0,0.3,0.1,0.6,0.3,0.7c0.2,0.1,0.6,0.2,1.2,0.2c0.4,0,0.9,0,1.4,0
		C101,84.7,101.5,84.7,102.1,84.6 M102,85.7c-0.5,0.1-1,0.1-1.5,0.2c-0.5,0-1,0.1-1.6,0.1c-1.1,0-1.9-0.1-2.3-0.4
		c-0.4-0.3-0.6-0.7-0.6-1.4v-0.9c0-0.6,0.2-1,0.6-1.3c0.4-0.3,1-0.4,1.8-0.4h2.9c0.9,0,1.5,0.2,1.8,0.5c0.3,0.3,0.5,0.9,0.5,1.7v0.9
		c0,1.3-0.4,2.3-1.3,3c-0.9,0.7-2.2,1.1-3.8,1.1c-0.1,0-0.2,0-0.3,0c-0.1,0-0.1,0-0.2,0l-1-1.1h0.4c1.5,0,2.5-0.1,3.2-0.4
		C101.3,86.8,101.8,86.3,102,85.7z"/>
	<path class="st1" d="M113.6,85.7v-3.1l-3.8,3.1H113.6z M113.6,88.5v-1.6h-5.3v-1.2l5.2-4.3h1.5v4.3h1.7v1.2H115v1.6H113.6z"/>
	<polygon class="st2" points="14.4,62.9 11.1,62.9 9.5,71.8 7.6,71.8 9.2,62.9 5.8,62.9 6.1,61.3 14.7,61.3 	"/>
	<path class="st2" d="M19.1,66c-0.4-0.3-0.8-0.5-1.1-0.5c-0.5,0-0.9,0.2-1.3,0.6c-0.4,0.4-0.6,0.9-0.7,1.4l-0.8,4.4h-1.8l1.4-7.7
		h1.8l-0.1,0.7c0.6-0.5,1.3-0.8,2.1-0.8c0.2,0,0.5,0,1.1,0.1L19.1,66z"/>
	<path class="st2" d="M26.1,71.8h-1.8l0.1-0.6C23.8,71.7,23,72,22,72c-0.7,0-1.2-0.2-1.6-0.6c-0.4-0.4-0.6-0.9-0.6-1.6
		c0-0.2,0-0.5,0.1-0.7l0.9-5h1.8L21.8,69c0,0.2-0.1,0.4-0.1,0.5c0,0.6,0.3,0.9,1.1,0.9c0.6,0,1-0.2,1.4-0.6c0.4-0.4,0.6-0.8,0.7-1.3
		l0.8-4.5h1.8L26.1,71.8z"/>
	<path class="st2" d="M33.3,66.2c-0.6-0.5-1.1-0.8-1.6-0.8c-0.3,0-0.6,0.1-0.8,0.2c-0.2,0.1-0.3,0.3-0.3,0.6c0,0.3,0.3,0.6,0.8,0.8
		c0.5,0.3,0.9,0.5,1.2,0.6c0.3,0.2,0.5,0.4,0.7,0.6c0.2,0.3,0.3,0.6,0.3,0.9c0,0.9-0.3,1.5-1,2C32,71.7,31.2,72,30.2,72
		c-0.8,0-1.7-0.2-2.5-0.7l1-1.6c0.6,0.6,1.2,0.9,1.8,0.9c0.4,0,0.7-0.1,0.9-0.3c0.2-0.2,0.4-0.4,0.4-0.7c0-0.3-0.2-0.5-0.7-0.7
		c-0.5-0.2-0.9-0.4-1.2-0.6c-0.3-0.2-0.6-0.4-0.8-0.7c-0.2-0.3-0.3-0.6-0.3-0.9c0-0.7,0.3-1.3,0.9-1.8c0.6-0.4,1.3-0.7,2.2-0.7
		c0.6,0,1.4,0.2,2.3,0.6L33.3,66.2z"/>
	<path class="st2" d="M40.5,65.6h-2.1L37.6,69c-0.1,0.3-0.1,0.5-0.1,0.7c0,0.5,0.3,0.8,0.9,0.8c0.3,0,0.7-0.1,1.3-0.4v1.6
		c-0.5,0.2-1.2,0.3-2.1,0.3c-0.6,0-1.1-0.2-1.4-0.5c-0.4-0.4-0.5-0.8-0.5-1.4c0-0.2,0-0.4,0.1-0.6l0.9-3.9h-0.9l0.3-1.4h0.9l0.3-1.6
		l2-0.7l-0.5,2.3h2.1L40.5,65.6z"/>
	<path class="st2" d="M43.7,67.1c0.3,0.1,0.6,0.1,1,0.1c0.7,0,1.2-0.1,1.7-0.3c0.4-0.2,0.7-0.5,0.7-0.9c0-0.4-0.5-0.6-1.4-0.6
		c-0.4,0-0.7,0.2-1.1,0.5C44.2,66.3,43.9,66.7,43.7,67.1 M43.3,68.5c0,0.1,0,0.2,0,0.3c0,0.5,0.2,0.9,0.5,1.2
		c0.3,0.3,0.8,0.4,1.3,0.4c0.3,0,0.7-0.1,1-0.2c0.4-0.2,0.7-0.4,0.9-0.6l-0.2,1.9c-0.6,0.3-1.4,0.4-2.2,0.4c-1,0-1.7-0.3-2.3-0.9
		c-0.6-0.6-0.9-1.4-0.9-2.5c0-1.3,0.4-2.4,1.3-3.3c0.9-0.9,2-1.3,3.3-1.3c0.8,0,1.5,0.2,2,0.5c0.5,0.3,0.8,0.8,0.8,1.5
		c0,0.9-0.4,1.6-1.1,2c-0.7,0.5-1.7,0.7-2.8,0.7C44.4,68.8,43.9,68.7,43.3,68.5z"/>
	<path class="st2" d="M54.1,65.5c-0.8,0-1.5,0.3-2,0.9c-0.5,0.6-0.7,1.4-0.7,2.3c0,1.2,0.5,1.8,1.5,1.8c1,0,1.7-0.8,2-2.5l0.3-1.9
		C55,65.7,54.6,65.5,54.1,65.5 M56,71.8h-1.8l0.1-0.7c-0.4,0.6-1.1,0.9-2,0.9c-0.9,0-1.6-0.3-2.1-0.8c-0.5-0.5-0.8-1.3-0.8-2.2
		c0-1.5,0.4-2.7,1.2-3.6c0.8-0.9,1.9-1.4,3.3-1.4c0.3,0,0.5,0.1,0.9,0.2c0.3,0.1,0.6,0.2,0.7,0.3l0.7-3.5h1.7L56,71.8z"/>
	<polygon class="st2" points="69.2,71.8 62.6,71.8 64.5,61.3 66.4,61.3 64.7,70.2 69.5,70.2 	"/>
	<path class="st2" d="M72.4,68.9c0,1.1,0.5,1.6,1.4,1.6c0.7,0,1.3-0.3,1.8-1c0.4-0.7,0.7-1.5,0.7-2.5c0-1-0.5-1.6-1.4-1.6
		c-0.7,0-1.3,0.3-1.8,1C72.6,67.2,72.4,68,72.4,68.9 M70.5,69c0-1.4,0.4-2.6,1.3-3.5c0.9-1,1.9-1.4,3.2-1.4c1,0,1.8,0.3,2.3,0.8
		c0.5,0.5,0.8,1.3,0.8,2.2c0,1.4-0.4,2.6-1.3,3.6S74.9,72,73.6,72c-1,0-1.7-0.3-2.3-0.8C70.8,70.7,70.5,69.9,70.5,69z"/>
	<path class="st2" d="M81,67.3c0,0.4,0.1,0.7,0.3,0.9c0.2,0.2,0.4,0.4,0.7,0.4c0.5,0,1-0.2,1.3-0.6c0.3-0.4,0.5-0.9,0.5-1.5
		c0-0.7-0.4-1-1.1-1c-0.5,0-1,0.2-1.3,0.5C81.2,66.3,81,66.8,81,67.3 M85.5,65.5c0.1,0.2,0.2,0.5,0.2,0.9c0,0.7-0.2,1.4-0.5,1.9
		c-0.3,0.5-0.9,1-1.6,1.3c-0.7,0.3-1.1,0.6-1.2,0.7c0.3-0.1,0.6-0.1,0.8-0.1c0.5,0,1,0.2,1.4,0.5c0.4,0.3,0.6,0.7,0.6,1.3
		c0,0.9-0.3,1.6-1,2.2c-0.7,0.5-1.6,0.8-2.8,0.8c-0.5,0-1-0.1-1.5-0.3c-0.6-0.2-1-0.4-1.4-0.7l0.8-1.4c0.7,0.5,1.4,0.7,2.1,0.7
		c1.3,0,2-0.4,2-1.1c0-0.2-0.1-0.3-0.2-0.4c-0.1-0.1-0.3-0.2-0.6-0.2l-1.4-0.2c-0.5-0.2-0.8-0.5-0.8-0.9c0-0.3,0.2-0.5,0.6-0.8
		c-0.5-0.2-0.9-0.4-1.3-0.8c-0.3-0.4-0.5-0.9-0.5-1.4c0-1,0.3-1.9,1-2.5c0.7-0.6,1.6-1,2.6-1c0.7,0,1.2,0.1,1.7,0.4l0.7-0.7l1.1,1.1
		L85.5,65.5z"/>
	<path class="st2" d="M89.1,71.8h-1.8l1.2-6.3h-1l0.3-1.4h2.8L89.1,71.8z M88.6,61.6c0-0.3,0.1-0.6,0.3-0.8c0.2-0.2,0.5-0.3,0.8-0.3
		c0.3,0,0.6,0.1,0.8,0.3c0.2,0.2,0.3,0.5,0.3,0.8c0,0.3-0.1,0.6-0.3,0.8c-0.2,0.2-0.5,0.3-0.8,0.3c-0.3,0-0.6-0.1-0.8-0.3
		C88.7,62.2,88.6,62,88.6,61.6z"/>
	<path class="st2" d="M96.8,66.2c-0.6-0.5-1.1-0.8-1.6-0.8c-0.3,0-0.6,0.1-0.8,0.2c-0.2,0.1-0.3,0.3-0.3,0.6c0,0.3,0.3,0.6,0.8,0.8
		c0.5,0.3,0.9,0.5,1.2,0.6c0.3,0.2,0.5,0.4,0.7,0.6c0.2,0.3,0.3,0.6,0.3,0.9c0,0.9-0.3,1.5-1,2c-0.6,0.5-1.5,0.7-2.4,0.7
		c-0.8,0-1.7-0.2-2.5-0.7l1-1.6c0.6,0.6,1.2,0.9,1.8,0.9c0.4,0,0.7-0.1,0.9-0.3c0.2-0.2,0.4-0.4,0.4-0.7c0-0.3-0.2-0.5-0.7-0.7
		c-0.5-0.2-0.9-0.4-1.2-0.6c-0.3-0.2-0.6-0.4-0.8-0.7c-0.2-0.3-0.3-0.6-0.3-0.9c0-0.7,0.3-1.3,0.9-1.8c0.6-0.4,1.3-0.7,2.2-0.7
		c0.6,0,1.4,0.2,2.3,0.6L96.8,66.2z"/>
	<path class="st2" d="M103.9,65.6h-2.1L101,69c-0.1,0.3-0.1,0.5-0.1,0.7c0,0.5,0.3,0.8,0.9,0.8c0.3,0,0.7-0.1,1.3-0.4v1.6
		c-0.5,0.2-1.2,0.3-2.1,0.3c-0.6,0-1.1-0.2-1.4-0.5c-0.4-0.4-0.5-0.8-0.5-1.4c0-0.2,0-0.4,0.1-0.6l0.9-3.9h-0.9l0.3-1.4h0.9l0.3-1.6
		l2-0.7l-0.5,2.3h2.1L103.9,65.6z"/>
	<path class="st2" d="M107.2,71.8h-1.8l1.2-6.3h-1l0.3-1.4h2.8L107.2,71.8z M106.6,61.6c0-0.3,0.1-0.6,0.3-0.8
		c0.2-0.2,0.5-0.3,0.8-0.3c0.3,0,0.6,0.1,0.8,0.3c0.2,0.2,0.3,0.5,0.3,0.8c0,0.3-0.1,0.6-0.3,0.8c-0.2,0.2-0.5,0.3-0.8,0.3
		s-0.6-0.1-0.8-0.3C106.8,62.2,106.6,62,106.6,61.6z"/>
	<path class="st2" d="M115.8,66c-0.5-0.4-1-0.5-1.5-0.5c-0.8,0-1.5,0.3-2,0.9c-0.5,0.6-0.8,1.4-0.8,2.3c0,0.5,0.1,0.9,0.4,1.2
		c0.3,0.3,0.6,0.5,1.1,0.5c0.6,0,1.4-0.3,2.3-0.8l-0.2,1.9c-0.7,0.3-1.5,0.5-2.3,0.5c-1,0-1.7-0.3-2.3-0.8c-0.6-0.5-0.9-1.3-0.9-2.2
		c0-1.4,0.4-2.6,1.2-3.6c0.8-0.9,1.9-1.4,3.3-1.4c0.8,0,1.4,0.2,2,0.5L115.8,66z"/>
	<path class="st2" d="M122.1,66.2c-0.6-0.5-1.1-0.8-1.6-0.8c-0.3,0-0.6,0.1-0.8,0.2c-0.2,0.1-0.3,0.3-0.3,0.6c0,0.3,0.3,0.6,0.8,0.8
		c0.5,0.3,0.9,0.5,1.2,0.6c0.3,0.2,0.5,0.4,0.7,0.6c0.2,0.3,0.3,0.6,0.3,0.9c0,0.9-0.3,1.5-1,2c-0.6,0.5-1.5,0.7-2.4,0.7
		c-0.8,0-1.7-0.2-2.5-0.7l1-1.6c0.6,0.6,1.2,0.9,1.8,0.9c0.4,0,0.7-0.1,0.9-0.3c0.2-0.2,0.4-0.4,0.4-0.7c0-0.3-0.2-0.5-0.7-0.7
		c-0.5-0.2-0.9-0.4-1.2-0.6c-0.3-0.2-0.6-0.4-0.8-0.7c-0.2-0.3-0.3-0.6-0.3-0.9c0-0.7,0.3-1.3,0.9-1.8c0.6-0.4,1.3-0.7,2.2-0.7
		c0.6,0,1.4,0.2,2.3,0.6L122.1,66.2z"/>
	<path class="st2" d="M131.5,62.9l-0.6,3.5c0.2,0.1,0.6,0.1,0.9,0.1c0.8,0,1.5-0.2,1.9-0.5c0.5-0.3,0.7-0.9,0.7-1.5
		c0-1.1-0.6-1.7-1.9-1.7C132.3,62.8,131.9,62.8,131.5,62.9 M130.6,68l-0.7,3.9H128l2-10.5c1-0.1,1.8-0.1,2.3-0.1
		c2.8,0,4.2,1,4.2,3.1c0,1.2-0.4,2.1-1.3,2.8c-0.9,0.7-2,1-3.3,1C131.4,68.1,131,68,130.6,68z"/>
	<path class="st2" d="M142.5,66c-0.4-0.3-0.8-0.5-1.1-0.5c-0.5,0-0.9,0.2-1.3,0.6c-0.4,0.4-0.6,0.9-0.7,1.4l-0.8,4.4h-1.8l1.4-7.7
		h1.8l-0.1,0.7c0.6-0.5,1.3-0.8,2.1-0.8c0.2,0,0.5,0,1.1,0.1L142.5,66z"/>
	<path class="st2" d="M145.2,68.9c0,1.1,0.5,1.6,1.4,1.6c0.7,0,1.3-0.3,1.8-1c0.4-0.7,0.7-1.5,0.7-2.5c0-1-0.5-1.6-1.4-1.6
		c-0.7,0-1.3,0.3-1.8,1C145.4,67.2,145.2,68,145.2,68.9 M143.3,69c0-1.4,0.4-2.6,1.3-3.5c0.9-1,1.9-1.4,3.2-1.4c1,0,1.8,0.3,2.3,0.8
		c0.5,0.5,0.8,1.3,0.8,2.2c0,1.4-0.4,2.6-1.3,3.6c-0.8,1-1.9,1.4-3.3,1.4c-1,0-1.7-0.3-2.3-0.8C143.6,70.7,143.3,69.9,143.3,69z"/>
	<polygon class="st2" points="154.9,72 154.2,72 151.9,64.1 153.8,64.1 155,68.8 157.8,64.1 159.9,64.1 	"/>
	<path class="st2" d="M162.2,71.8h-1.8l1.2-6.3h-1l0.3-1.4h2.8L162.2,71.8z M161.7,61.6c0-0.3,0.1-0.6,0.3-0.8
		c0.2-0.2,0.5-0.3,0.8-0.3c0.3,0,0.6,0.1,0.8,0.3c0.2,0.2,0.3,0.5,0.3,0.8c0,0.3-0.1,0.6-0.3,0.8c-0.2,0.2-0.5,0.3-0.8,0.3
		c-0.3,0-0.6-0.1-0.8-0.3C161.8,62.2,161.7,62,161.7,61.6z"/>
	<path class="st2" d="M169.2,65.5c-0.8,0-1.5,0.3-2,0.9c-0.5,0.6-0.7,1.4-0.7,2.3c0,1.2,0.5,1.8,1.5,1.8c1,0,1.7-0.8,2-2.5l0.3-1.9
		C170.1,65.7,169.8,65.5,169.2,65.5 M171.1,71.8h-1.8l0.1-0.7c-0.4,0.6-1.1,0.9-2,0.9c-0.9,0-1.6-0.3-2.1-0.8
		c-0.5-0.5-0.8-1.3-0.8-2.2c0-1.5,0.4-2.7,1.2-3.6c0.8-0.9,1.9-1.4,3.3-1.4c0.3,0,0.5,0.1,0.9,0.2c0.3,0.1,0.6,0.2,0.7,0.3l0.7-3.5
		h1.7L171.1,71.8z"/>
	<path class="st2" d="M175.7,67.1c0.3,0.1,0.6,0.1,1,0.1c0.7,0,1.2-0.1,1.7-0.3c0.4-0.2,0.7-0.5,0.7-0.9c0-0.4-0.5-0.6-1.4-0.6
		c-0.4,0-0.7,0.2-1.1,0.5C176.2,66.3,175.9,66.7,175.7,67.1 M175.4,68.5c0,0.1,0,0.2,0,0.3c0,0.5,0.2,0.9,0.5,1.2
		c0.3,0.3,0.8,0.4,1.3,0.4c0.3,0,0.7-0.1,1-0.2c0.4-0.2,0.7-0.4,0.9-0.6l-0.2,1.9c-0.6,0.3-1.4,0.4-2.2,0.4c-1,0-1.7-0.3-2.3-0.9
		c-0.6-0.6-0.9-1.4-0.9-2.5c0-1.3,0.4-2.4,1.3-3.3c0.9-0.9,2-1.3,3.3-1.3c0.8,0,1.5,0.2,2,0.5c0.5,0.3,0.8,0.8,0.8,1.5
		c0,0.9-0.4,1.6-1.1,2c-0.7,0.5-1.7,0.7-2.8,0.7C176.4,68.8,175.9,68.7,175.4,68.5z"/>
	<path class="st2" d="M187.3,66c-0.4-0.3-0.8-0.5-1.1-0.5c-0.5,0-0.9,0.2-1.3,0.6c-0.4,0.4-0.6,0.9-0.7,1.4l-0.8,4.4h-1.8l1.4-7.7
		h1.8l-0.1,0.7c0.6-0.5,1.3-0.8,2.1-0.8c0.2,0,0.5,0,1.1,0.1L187.3,66z"/>
	<path class="st2" d="M193.3,66.2c-0.6-0.5-1.1-0.8-1.6-0.8c-0.3,0-0.6,0.1-0.8,0.2c-0.2,0.1-0.3,0.3-0.3,0.6c0,0.3,0.3,0.6,0.8,0.8
		c0.5,0.3,0.9,0.5,1.2,0.6c0.3,0.2,0.5,0.4,0.7,0.6c0.2,0.3,0.3,0.6,0.3,0.9c0,0.9-0.3,1.5-1,2c-0.6,0.5-1.5,0.7-2.4,0.7
		c-0.8,0-1.7-0.2-2.5-0.7l1-1.6c0.6,0.6,1.2,0.9,1.8,0.9c0.4,0,0.7-0.1,0.9-0.3c0.2-0.2,0.4-0.4,0.4-0.7c0-0.3-0.2-0.5-0.7-0.7
		c-0.5-0.2-0.9-0.4-1.2-0.6c-0.3-0.2-0.6-0.4-0.8-0.7c-0.2-0.3-0.3-0.6-0.3-0.9c0-0.7,0.3-1.3,0.9-1.8c0.6-0.4,1.3-0.7,2.2-0.7
		c0.6,0,1.4,0.2,2.3,0.6L193.3,66.2z"/>
</g>
</svg>
