<?xml version="1.0" encoding="utf-8"?>
<!-- Generator: Adobe Illustrator 22.1.0, SVG Export Plug-In . SVG Version: 6.00 Build 0)  -->
<svg version="1.1" id="Layer_1" xmlns="http://www.w3.org/2000/svg" xmlns:xlink="http://www.w3.org/1999/xlink" x="0px" y="0px"
	 viewBox="0 0 270.5 110" style="enable-background:new 0 0 270.5 110;" xml:space="preserve">
<style type="text/css">
	.st0{fill:#C00724;}
</style>
<g>
	<g>
		<path d="M14.8,88.5v1.3h-2.7v9.1h-1.5v-9.1H8v-1.3H14.8z"/>
		<path d="M16.8,92.9c0.2-0.4,0.5-0.7,0.9-1c0.4-0.3,0.9-0.4,1.4-0.4v1.3c-0.8,0-1.3,0.2-1.7,0.5c-0.4,0.4-0.6,0.9-0.6,1.7v3.9h-1.4
			v-7.3h1.4V92.9z"/>
		<path d="M25.1,91.6h1.4v7.3h-1.4l0-0.9c-0.2,0.3-0.5,0.6-0.9,0.8c-0.4,0.2-0.8,0.3-1.3,0.3c-0.8,0-1.4-0.2-1.9-0.7
			c-0.5-0.4-0.7-1.1-0.7-1.9v-4.9h1.4v4.6c0,0.6,0.1,1,0.4,1.3c0.3,0.3,0.7,0.4,1.1,0.4c0.5,0,0.9-0.2,1.3-0.5
			c0.3-0.3,0.5-0.8,0.5-1.5V91.6z"/>
		<path d="M31.2,99.1c-0.8,0-1.5-0.2-2-0.5s-0.9-0.9-1-1.5l1.2-0.3c0.1,0.4,0.3,0.8,0.6,1c0.3,0.2,0.7,0.3,1.2,0.3
			c0.4,0,0.7-0.1,1-0.3c0.3-0.2,0.4-0.4,0.4-0.8c0-0.1,0-0.2-0.1-0.3c0-0.1-0.1-0.2-0.2-0.3c-0.1-0.1-0.2-0.1-0.3-0.2
			c-0.1-0.1-0.2-0.1-0.4-0.2c-0.2-0.1-0.3-0.1-0.4-0.1c-0.1,0-0.3-0.1-0.5-0.1s-0.4-0.1-0.5-0.1c-0.3-0.1-0.5-0.2-0.7-0.3
			c-0.2-0.1-0.4-0.2-0.6-0.4c-0.2-0.2-0.4-0.3-0.5-0.6c-0.1-0.2-0.2-0.5-0.2-0.8c0-0.7,0.2-1.2,0.7-1.6c0.5-0.4,1.1-0.5,1.9-0.5
			c0.7,0,1.3,0.2,1.8,0.5s0.8,0.8,0.9,1.4l-1.1,0.3c-0.1-0.4-0.3-0.7-0.6-0.9c-0.3-0.2-0.6-0.3-1-0.3c-0.4,0-0.7,0.1-0.9,0.2
			c-0.3,0.2-0.4,0.4-0.4,0.7c0,0.2,0,0.3,0.1,0.5c0.1,0.1,0.2,0.2,0.4,0.3s0.3,0.2,0.5,0.2c0.2,0.1,0.4,0.1,0.6,0.2
			c0.1,0,0.1,0,0.2,0c0.3,0.1,0.5,0.1,0.7,0.2c0.2,0.1,0.4,0.2,0.6,0.3c0.2,0.1,0.4,0.3,0.6,0.4c0.1,0.1,0.3,0.3,0.4,0.6
			c0.1,0.2,0.1,0.5,0.1,0.8c0,0.3,0,0.6-0.1,0.8s-0.2,0.5-0.4,0.6c-0.2,0.2-0.4,0.3-0.6,0.4c-0.2,0.1-0.5,0.2-0.8,0.2
			C31.8,99,31.5,99.1,31.2,99.1z"/>
		<path d="M38.2,98.9c-0.6,0-1.1-0.2-1.5-0.5c-0.4-0.4-0.5-0.9-0.5-1.5v-4.2h-1.5v-1.1h0.5c0.4,0,0.7-0.1,0.8-0.3
			c0.2-0.2,0.2-0.5,0.2-0.9v-1.3h1.3v2.4h1.7v1.1h-1.7v4c0,0.3,0.1,0.6,0.3,0.8c0.2,0.2,0.4,0.3,0.7,0.3h0.7v1.1H38.2z"/>
		<path d="M47.4,95.1l0,0.4h-5.7c0,0.8,0.3,1.4,0.7,1.8c0.4,0.4,1,0.6,1.6,0.6c0.4,0,0.8-0.1,1.2-0.3c0.3-0.2,0.6-0.5,0.8-0.9
			l1.3,0.3c-0.3,0.7-0.7,1.2-1.3,1.6s-1.2,0.6-2,0.6c-1.1,0-2-0.3-2.7-1c-0.7-0.7-1-1.6-1-2.8c0-1.2,0.3-2.1,1-2.8
			c0.7-0.7,1.6-1,2.6-1c1,0,1.9,0.3,2.5,0.9S47.4,93.9,47.4,95.1z M43.9,92.5c-0.6,0-1.1,0.2-1.5,0.5c-0.4,0.3-0.6,0.8-0.7,1.4h4.2
			c-0.1-0.6-0.3-1.1-0.6-1.4C44.9,92.7,44.5,92.5,43.9,92.5z"/>
		<path d="M54.5,87.5H56v11.4h-1.4l0-1.3c-0.2,0.5-0.6,0.8-1,1.1c-0.5,0.3-1,0.4-1.5,0.4c-0.5,0-0.9-0.1-1.3-0.3
			c-0.4-0.2-0.8-0.4-1.1-0.8s-0.6-0.7-0.7-1.2c-0.2-0.5-0.3-1-0.3-1.6c0-0.8,0.2-1.4,0.5-2c0.3-0.6,0.7-1,1.3-1.3
			c0.5-0.3,1.1-0.5,1.7-0.5c0.6,0,1.1,0.1,1.5,0.4c0.4,0.3,0.8,0.6,1,1.1V87.5z M52.3,97.9c0.7,0,1.2-0.2,1.7-0.7s0.7-1.1,0.7-1.9
			c0-0.7-0.2-1.4-0.7-1.9c-0.4-0.5-1-0.7-1.6-0.7c-0.7,0-1.2,0.2-1.7,0.7c-0.4,0.5-0.7,1.1-0.7,1.9s0.2,1.4,0.7,1.9
			C51.1,97.6,51.6,97.9,52.3,97.9z"/>
		<path d="M62.1,98.9V87.5h1.4v11.4H62.1z"/>
		<path d="M69.1,99.1c-1.1,0-2-0.3-2.7-1c-0.7-0.7-1.1-1.6-1.1-2.8s0.4-2.1,1.1-2.8s1.6-1,2.7-1s2,0.3,2.7,1s1.1,1.6,1.1,2.8
			s-0.4,2.1-1.1,2.8C71.1,98.7,70.2,99.1,69.1,99.1z M69.1,97.9c0.7,0,1.2-0.2,1.7-0.7s0.7-1.1,0.7-1.9s-0.2-1.4-0.7-1.9
			c-0.4-0.5-1-0.7-1.7-0.7c-0.7,0-1.2,0.2-1.7,0.7c-0.4,0.5-0.7,1.1-0.7,1.9s0.2,1.4,0.7,1.9S68.4,97.9,69.1,97.9z"/>
		<path d="M79.9,91.6h1.4v6.9c0,1.3-0.3,2.2-1,2.9c-0.6,0.7-1.5,1-2.7,1c-1.8,0-3-0.8-3.6-2.3l1.2-0.6c0.4,1.1,1.2,1.7,2.4,1.7
			c0.7,0,1.3-0.2,1.7-0.7c0.4-0.5,0.6-1.1,0.6-1.9v-1.3c-0.2,0.4-0.6,0.7-1,1c-0.5,0.3-1,0.4-1.5,0.4c-0.5,0-0.9-0.1-1.3-0.3
			c-0.4-0.2-0.8-0.4-1.1-0.7c-0.3-0.3-0.5-0.7-0.7-1.2S74,95.6,74,95.1c0-1.1,0.3-1.9,1-2.6c0.7-0.7,1.4-1,2.4-1
			c0.6,0,1.1,0.1,1.5,0.4s0.8,0.6,1,1L79.9,91.6z M77.7,97.5c0.6,0,1.2-0.2,1.6-0.7s0.7-1.1,0.7-1.7c0-0.7-0.2-1.2-0.7-1.7
			c-0.4-0.5-1-0.7-1.6-0.7c-0.6,0-1.2,0.2-1.6,0.7c-0.4,0.5-0.7,1-0.7,1.7c0,0.7,0.2,1.3,0.7,1.7S77,97.5,77.7,97.5z"/>
		<path d="M84.4,90c-0.3,0-0.5-0.1-0.7-0.3s-0.3-0.4-0.3-0.7c0-0.3,0.1-0.5,0.3-0.6s0.4-0.3,0.7-0.3c0.3,0,0.5,0.1,0.6,0.3
			c0.2,0.2,0.3,0.4,0.3,0.6c0,0.3-0.1,0.5-0.3,0.7C84.9,89.9,84.7,90,84.4,90z M83.7,98.9v-7.3h1.4v7.3H83.7z"/>
		<path d="M89.9,99.1c-0.8,0-1.5-0.2-2-0.5s-0.9-0.9-1-1.5l1.2-0.3c0.1,0.4,0.3,0.8,0.6,1c0.3,0.2,0.7,0.3,1.2,0.3
			c0.4,0,0.7-0.1,1-0.3c0.3-0.2,0.4-0.4,0.4-0.8c0-0.1,0-0.2-0.1-0.3c0-0.1-0.1-0.2-0.2-0.3c-0.1-0.1-0.2-0.1-0.3-0.2
			c-0.1-0.1-0.2-0.1-0.4-0.2c-0.2-0.1-0.3-0.1-0.4-0.1c-0.1,0-0.3-0.1-0.5-0.1s-0.4-0.1-0.5-0.1c-0.3-0.1-0.5-0.2-0.7-0.3
			c-0.2-0.1-0.4-0.2-0.6-0.4c-0.2-0.2-0.4-0.3-0.5-0.6c-0.1-0.2-0.2-0.5-0.2-0.8c0-0.7,0.2-1.2,0.7-1.6c0.5-0.4,1.1-0.5,1.9-0.5
			c0.7,0,1.3,0.2,1.8,0.5s0.8,0.8,0.9,1.4l-1.1,0.3c-0.1-0.4-0.3-0.7-0.6-0.9c-0.3-0.2-0.6-0.3-1-0.3c-0.4,0-0.7,0.1-0.9,0.2
			c-0.3,0.2-0.4,0.4-0.4,0.7c0,0.2,0,0.3,0.1,0.5c0.1,0.1,0.2,0.2,0.4,0.3s0.3,0.2,0.5,0.2c0.2,0.1,0.4,0.1,0.6,0.2
			c0.1,0,0.1,0,0.2,0c0.3,0.1,0.5,0.1,0.7,0.2c0.2,0.1,0.4,0.2,0.6,0.3c0.2,0.1,0.4,0.3,0.6,0.4c0.1,0.1,0.3,0.3,0.4,0.6
			c0.1,0.2,0.1,0.5,0.1,0.8c0,0.3,0,0.6-0.1,0.8s-0.2,0.5-0.4,0.6c-0.2,0.2-0.4,0.3-0.6,0.4c-0.2,0.1-0.5,0.2-0.8,0.2
			C90.5,99,90.2,99.1,89.9,99.1z"/>
		<path d="M96.8,98.9c-0.6,0-1.1-0.2-1.5-0.5c-0.4-0.4-0.5-0.9-0.5-1.5v-4.2h-1.5v-1.1h0.5c0.4,0,0.7-0.1,0.8-0.3
			c0.2-0.2,0.2-0.5,0.2-0.9v-1.3h1.3v2.4h1.7v1.1h-1.7v4c0,0.3,0.1,0.6,0.3,0.8c0.2,0.2,0.4,0.3,0.7,0.3h0.7v1.1H96.8z"/>
		<path d="M100.3,90c-0.3,0-0.5-0.1-0.7-0.3s-0.3-0.4-0.3-0.7c0-0.3,0.1-0.5,0.3-0.6s0.4-0.3,0.7-0.3c0.3,0,0.5,0.1,0.6,0.3
			c0.2,0.2,0.3,0.4,0.3,0.6c0,0.3-0.1,0.5-0.3,0.7C100.8,89.9,100.5,90,100.3,90z M99.6,98.9v-7.3h1.4v7.3H99.6z"/>
		<path d="M106.5,99.1c-1.1,0-2-0.4-2.7-1.1c-0.7-0.7-1-1.6-1-2.8s0.3-2,1-2.8c0.7-0.7,1.6-1.1,2.7-1.1c0.8,0,1.6,0.2,2.2,0.7
			s1,1,1.2,1.8l-1.3,0.2c-0.2-0.5-0.4-0.9-0.8-1.1c-0.4-0.3-0.8-0.4-1.3-0.4c-0.7,0-1.2,0.2-1.6,0.7c-0.4,0.5-0.6,1.1-0.6,1.9
			c0,0.8,0.2,1.4,0.6,1.9s1,0.7,1.6,0.7c0.5,0,0.9-0.1,1.3-0.4c0.4-0.3,0.6-0.6,0.8-1.1l1.3,0.2c-0.2,0.8-0.6,1.4-1.2,1.8
			C108,98.8,107.3,99.1,106.5,99.1z"/>
		<path d="M113.9,99.1c-0.8,0-1.5-0.2-2-0.5s-0.9-0.9-1-1.5l1.2-0.3c0.1,0.4,0.3,0.8,0.6,1c0.3,0.2,0.7,0.3,1.2,0.3
			c0.4,0,0.7-0.1,1-0.3c0.3-0.2,0.4-0.4,0.4-0.8c0-0.1,0-0.2-0.1-0.3c0-0.1-0.1-0.2-0.2-0.3c-0.1-0.1-0.2-0.1-0.3-0.2
			c-0.1-0.1-0.2-0.1-0.4-0.2c-0.2-0.1-0.3-0.1-0.4-0.1c-0.1,0-0.3-0.1-0.5-0.1s-0.4-0.1-0.5-0.1c-0.3-0.1-0.5-0.2-0.7-0.3
			c-0.2-0.1-0.4-0.2-0.6-0.4c-0.2-0.2-0.4-0.3-0.5-0.6c-0.1-0.2-0.2-0.5-0.2-0.8c0-0.7,0.2-1.2,0.7-1.6c0.5-0.4,1.1-0.5,1.9-0.5
			c0.7,0,1.3,0.2,1.8,0.5s0.8,0.8,0.9,1.4l-1.1,0.3c-0.1-0.4-0.3-0.7-0.6-0.9c-0.3-0.2-0.6-0.3-1-0.3c-0.4,0-0.7,0.1-0.9,0.2
			c-0.3,0.2-0.4,0.4-0.4,0.7c0,0.2,0,0.3,0.1,0.5c0.1,0.1,0.2,0.2,0.4,0.3s0.3,0.2,0.5,0.2c0.2,0.1,0.4,0.1,0.6,0.2
			c0.1,0,0.1,0,0.2,0c0.3,0.1,0.5,0.1,0.7,0.2c0.2,0.1,0.4,0.2,0.6,0.3c0.2,0.1,0.4,0.3,0.6,0.4c0.1,0.1,0.3,0.3,0.4,0.6
			c0.1,0.2,0.1,0.5,0.1,0.8c0,0.3,0,0.6-0.1,0.8s-0.2,0.5-0.4,0.6c-0.2,0.2-0.4,0.3-0.6,0.4c-0.2,0.1-0.5,0.2-0.8,0.2
			C114.5,99,114.2,99.1,113.9,99.1z"/>
		<path d="M126.2,91.4c1,0,1.8,0.3,2.4,1c0.7,0.7,1,1.6,1,2.8c0,0.6-0.1,1.1-0.3,1.6c-0.2,0.5-0.4,0.9-0.7,1.2
			c-0.3,0.3-0.7,0.6-1.1,0.8c-0.4,0.2-0.9,0.3-1.3,0.3c-0.6,0-1.1-0.1-1.5-0.4c-0.4-0.3-0.8-0.6-1-1.1v5h-1.4v-11h1.4l0,1.3
			c0.2-0.5,0.6-0.8,1-1.1S125.6,91.4,126.2,91.4z M125.9,97.9c0.7,0,1.2-0.2,1.6-0.7c0.4-0.5,0.7-1.1,0.7-1.9c0-0.8-0.2-1.4-0.7-1.9
			c-0.4-0.5-1-0.7-1.6-0.7c-0.7,0-1.2,0.2-1.7,0.7c-0.4,0.5-0.7,1.1-0.7,1.9c0,0.7,0.2,1.4,0.7,1.9S125.2,97.9,125.9,97.9z"/>
		<path d="M132.8,92.9c0.2-0.4,0.5-0.7,0.9-1c0.4-0.3,0.9-0.4,1.4-0.4v1.3c-0.8,0-1.3,0.2-1.7,0.5s-0.6,0.9-0.6,1.7v3.9h-1.4v-7.3
			h1.4V92.9z"/>
		<path d="M139.5,99.1c-1.1,0-2-0.3-2.7-1c-0.7-0.7-1.1-1.6-1.1-2.8s0.4-2.1,1.1-2.8c0.7-0.7,1.6-1,2.7-1c1.1,0,2,0.3,2.7,1
			s1.1,1.6,1.1,2.8s-0.4,2.1-1.1,2.8C141.5,98.7,140.6,99.1,139.5,99.1z M139.5,97.9c0.7,0,1.2-0.2,1.7-0.7s0.7-1.1,0.7-1.9
			s-0.2-1.4-0.7-1.9c-0.4-0.5-1-0.7-1.7-0.7c-0.7,0-1.2,0.2-1.7,0.7c-0.4,0.5-0.7,1.1-0.7,1.9s0.2,1.4,0.7,1.9
			S138.9,97.9,139.5,97.9z"/>
		<path d="M149.4,91.6h1.5l-3,7.3h-1.2l-3-7.3h1.5l2.1,5.7L149.4,91.6z"/>
		<path d="M152.9,90c-0.3,0-0.5-0.1-0.7-0.3c-0.2-0.2-0.3-0.4-0.3-0.7c0-0.3,0.1-0.5,0.3-0.6c0.2-0.2,0.4-0.3,0.7-0.3
			s0.5,0.1,0.6,0.3c0.2,0.2,0.3,0.4,0.3,0.6c0,0.3-0.1,0.5-0.3,0.7C153.4,89.9,153.2,90,152.9,90z M152.2,98.9v-7.3h1.4v7.3H152.2z"
			/>
		<path d="M161.4,87.5h1.4v11.4h-1.4l0-1.3c-0.2,0.5-0.6,0.8-1,1.1s-1,0.4-1.5,0.4c-0.5,0-0.9-0.1-1.3-0.3c-0.4-0.2-0.8-0.4-1.1-0.8
			s-0.6-0.7-0.7-1.2s-0.3-1-0.3-1.6c0-0.8,0.2-1.4,0.5-2s0.7-1,1.3-1.3s1.1-0.5,1.7-0.5c0.6,0,1.1,0.1,1.5,0.4
			c0.4,0.3,0.8,0.6,1,1.1V87.5z M159.2,97.9c0.7,0,1.2-0.2,1.7-0.7s0.7-1.1,0.7-1.9c0-0.7-0.2-1.4-0.7-1.9c-0.4-0.5-1-0.7-1.6-0.7
			c-0.7,0-1.2,0.2-1.7,0.7c-0.4,0.5-0.7,1.1-0.7,1.9s0.2,1.4,0.7,1.9C158,97.6,158.5,97.9,159.2,97.9z"/>
		<path d="M171.7,95.1l0,0.4H166c0,0.8,0.3,1.4,0.7,1.8c0.4,0.4,1,0.6,1.6,0.6c0.4,0,0.8-0.1,1.2-0.3c0.3-0.2,0.6-0.5,0.8-0.9
			l1.3,0.3c-0.3,0.7-0.7,1.2-1.3,1.6c-0.6,0.4-1.2,0.6-2,0.6c-1.1,0-2-0.3-2.7-1c-0.7-0.7-1-1.6-1-2.8c0-1.2,0.3-2.1,1-2.8
			c0.7-0.7,1.6-1,2.6-1c1,0,1.9,0.3,2.5,0.9C171.4,93,171.7,93.9,171.7,95.1z M168.3,92.5c-0.6,0-1.1,0.2-1.5,0.5
			c-0.4,0.3-0.6,0.8-0.7,1.4h4.2c-0.1-0.6-0.3-1.1-0.6-1.4C169.3,92.7,168.9,92.5,168.3,92.5z"/>
		<path d="M174.9,92.9c0.2-0.4,0.5-0.7,0.9-1c0.4-0.3,0.9-0.4,1.4-0.4v1.3c-0.8,0-1.3,0.2-1.7,0.5c-0.4,0.4-0.6,0.9-0.6,1.7v3.9
			h-1.4v-7.3h1.4V92.9z"/>
		<path d="M180.9,99.1c-0.8,0-1.5-0.2-2-0.5c-0.5-0.4-0.9-0.9-1-1.5l1.2-0.3c0.1,0.4,0.3,0.8,0.6,1c0.3,0.2,0.7,0.3,1.2,0.3
			c0.4,0,0.7-0.1,1-0.3c0.3-0.2,0.4-0.4,0.4-0.8c0-0.1,0-0.2-0.1-0.3c0-0.1-0.1-0.2-0.2-0.3c-0.1-0.1-0.2-0.1-0.3-0.2
			c-0.1-0.1-0.2-0.1-0.4-0.2c-0.2-0.1-0.3-0.1-0.4-0.1c-0.1,0-0.3-0.1-0.5-0.1s-0.4-0.1-0.5-0.1c-0.3-0.1-0.5-0.2-0.7-0.3
			c-0.2-0.1-0.4-0.2-0.6-0.4c-0.2-0.2-0.4-0.3-0.5-0.6c-0.1-0.2-0.2-0.5-0.2-0.8c0-0.7,0.2-1.2,0.7-1.6c0.5-0.4,1.1-0.5,1.9-0.5
			c0.7,0,1.3,0.2,1.8,0.5s0.8,0.8,0.9,1.4l-1.1,0.3c-0.1-0.4-0.3-0.7-0.6-0.9c-0.3-0.2-0.6-0.3-1-0.3c-0.4,0-0.7,0.1-0.9,0.2
			c-0.3,0.2-0.4,0.4-0.4,0.7c0,0.2,0,0.3,0.1,0.5c0.1,0.1,0.2,0.2,0.4,0.3c0.2,0.1,0.3,0.2,0.5,0.2c0.2,0.1,0.4,0.1,0.6,0.2
			c0.1,0,0.1,0,0.2,0c0.3,0.1,0.5,0.1,0.7,0.2c0.2,0.1,0.4,0.2,0.6,0.3s0.4,0.3,0.6,0.4c0.1,0.1,0.3,0.3,0.4,0.6
			c0.1,0.2,0.1,0.5,0.1,0.8c0,0.3,0,0.6-0.1,0.8s-0.2,0.5-0.4,0.6c-0.2,0.2-0.4,0.3-0.6,0.4s-0.5,0.2-0.8,0.2
			C181.5,99,181.2,99.1,180.9,99.1z"/>
		<path d="M191.6,99.1c-0.8,0-1.5-0.2-2-0.5c-0.5-0.4-0.9-0.9-1-1.5l1.2-0.3c0.1,0.4,0.3,0.8,0.6,1c0.3,0.2,0.7,0.3,1.2,0.3
			c0.4,0,0.7-0.1,1-0.3c0.3-0.2,0.4-0.4,0.4-0.8c0-0.1,0-0.2-0.1-0.3c0-0.1-0.1-0.2-0.2-0.3c-0.1-0.1-0.2-0.1-0.3-0.2
			c-0.1-0.1-0.2-0.1-0.4-0.2c-0.2-0.1-0.3-0.1-0.4-0.1c-0.1,0-0.3-0.1-0.5-0.1s-0.4-0.1-0.5-0.1c-0.3-0.1-0.5-0.2-0.7-0.3
			c-0.2-0.1-0.4-0.2-0.6-0.4c-0.2-0.2-0.4-0.3-0.5-0.6c-0.1-0.2-0.2-0.5-0.2-0.8c0-0.7,0.2-1.2,0.7-1.6c0.5-0.4,1.1-0.5,1.9-0.5
			c0.7,0,1.3,0.2,1.8,0.5s0.8,0.8,0.9,1.4l-1.1,0.3c-0.1-0.4-0.3-0.7-0.6-0.9c-0.3-0.2-0.6-0.3-1-0.3c-0.4,0-0.7,0.1-0.9,0.2
			c-0.3,0.2-0.4,0.4-0.4,0.7c0,0.2,0,0.3,0.1,0.5c0.1,0.1,0.2,0.2,0.4,0.3c0.2,0.1,0.3,0.2,0.5,0.2c0.2,0.1,0.4,0.1,0.6,0.2
			c0.1,0,0.1,0,0.2,0c0.3,0.1,0.5,0.1,0.7,0.2c0.2,0.1,0.4,0.2,0.6,0.3s0.4,0.3,0.6,0.4c0.1,0.1,0.3,0.3,0.4,0.6
			c0.1,0.2,0.1,0.5,0.1,0.8c0,0.3,0,0.6-0.1,0.8s-0.2,0.5-0.4,0.6c-0.2,0.2-0.4,0.3-0.6,0.4s-0.5,0.2-0.8,0.2
			C192.2,99,191.9,99.1,191.6,99.1z"/>
		<path d="M196.9,90c-0.3,0-0.5-0.1-0.7-0.3c-0.2-0.2-0.3-0.4-0.3-0.7c0-0.3,0.1-0.5,0.3-0.6c0.2-0.2,0.4-0.3,0.7-0.3
			s0.5,0.1,0.6,0.3c0.2,0.2,0.3,0.4,0.3,0.6c0,0.3-0.1,0.5-0.3,0.7C197.4,89.9,197.1,90,196.9,90z M196.2,98.9v-7.3h1.4v7.3H196.2z"
			/>
		<path d="M203.6,91.4c0.8,0,1.4,0.2,1.9,0.7c0.5,0.4,0.7,1.1,0.7,1.9v4.9h-1.4v-4.6c0-0.6-0.1-1-0.4-1.3c-0.3-0.3-0.7-0.4-1.1-0.4
			c-0.5,0-1,0.2-1.3,0.5c-0.3,0.3-0.5,0.8-0.5,1.5v4.3H200v-7.3h1.4v0.9c0.2-0.3,0.5-0.6,0.9-0.8S203.1,91.4,203.6,91.4z"/>
		<path d="M211.5,99.1c-1.1,0-2-0.4-2.7-1.1c-0.7-0.7-1-1.6-1-2.8s0.3-2,1-2.8c0.7-0.7,1.6-1.1,2.7-1.1c0.8,0,1.6,0.2,2.2,0.7
			c0.6,0.4,1,1,1.2,1.8l-1.3,0.2c-0.2-0.5-0.4-0.9-0.8-1.1c-0.4-0.3-0.8-0.4-1.3-0.4c-0.7,0-1.2,0.2-1.6,0.7
			c-0.4,0.5-0.6,1.1-0.6,1.9c0,0.8,0.2,1.4,0.6,1.9c0.4,0.5,1,0.7,1.6,0.7c0.5,0,0.9-0.1,1.3-0.4c0.4-0.3,0.6-0.6,0.8-1.1l1.3,0.2
			c-0.2,0.8-0.6,1.4-1.2,1.8C213.1,98.8,212.3,99.1,211.5,99.1z"/>
		<path d="M223.1,95.1l0,0.4h-5.7c0,0.8,0.3,1.4,0.7,1.8c0.4,0.4,1,0.6,1.6,0.6c0.4,0,0.8-0.1,1.2-0.3c0.3-0.2,0.6-0.5,0.8-0.9
			l1.3,0.3c-0.3,0.7-0.7,1.2-1.3,1.6c-0.6,0.4-1.2,0.6-2,0.6c-1.1,0-2-0.3-2.7-1c-0.7-0.7-1-1.6-1-2.8c0-1.2,0.3-2.1,1-2.8
			c0.7-0.7,1.6-1,2.6-1c1,0,1.9,0.3,2.5,0.9C222.8,93,223.1,93.9,223.1,95.1z M219.7,92.5c-0.6,0-1.1,0.2-1.5,0.5
			c-0.4,0.3-0.6,0.8-0.7,1.4h4.2c-0.1-0.6-0.3-1.1-0.6-1.4C220.7,92.7,220.2,92.5,219.7,92.5z"/>
		<path d="M231.7,88.5h1.3v10.5h-1.4V90l-2.5,2.2v-1.5L231.7,88.5z"/>
		<path d="M240.2,88.3c1,0,1.9,0.3,2.6,1c0.7,0.7,1.1,1.5,1.1,2.5c0,0.9-0.3,1.7-0.9,2.5l-3.5,4.5h-1.7l2.9-3.6
			c-0.2,0.1-0.5,0.1-0.8,0.1c-0.6,0-1.1-0.1-1.6-0.4s-0.9-0.7-1.2-1.2s-0.5-1.1-0.5-1.8c0-1.1,0.3-1.9,1.1-2.6
			C238.3,88.7,239.1,88.3,240.2,88.3z M238.6,93.7c0.4,0.4,1,0.6,1.7,0.6s1.2-0.2,1.6-0.7c0.4-0.5,0.6-1,0.6-1.7
			c0-0.7-0.2-1.3-0.6-1.7c-0.4-0.4-1-0.6-1.7-0.6c-0.7,0-1.2,0.2-1.7,0.6s-0.6,1-0.6,1.7S238.1,93.2,238.6,93.7z"/>
		<path d="M248.6,88.3c1,0,1.9,0.3,2.6,1c0.7,0.7,1.1,1.5,1.1,2.5c0,0.9-0.3,1.7-0.9,2.5l-3.5,4.5h-1.7l2.9-3.6
			c-0.2,0.1-0.5,0.1-0.8,0.1c-0.6,0-1.1-0.1-1.6-0.4s-0.9-0.7-1.2-1.2s-0.5-1.1-0.5-1.8c0-1.1,0.3-1.9,1.1-2.6
			C246.7,88.7,247.6,88.3,248.6,88.3z M247,93.7c0.4,0.4,1,0.6,1.7,0.6s1.2-0.2,1.6-0.7c0.4-0.5,0.6-1,0.6-1.7
			c0-0.7-0.2-1.3-0.6-1.7c-0.4-0.4-1-0.6-1.7-0.6c-0.7,0-1.2,0.2-1.7,0.6s-0.6,1-0.6,1.7S246.6,93.2,247,93.7z"/>
		<path d="M261.1,95.5v1.3h-1.6v2.1h-1.4v-2.1h-5v-1.3l4.2-7.1h2.2v7.1H261.1z M254.6,95.5h3.5v-6.1L254.6,95.5z"/>
	</g>
	<path class="st0" d="M14.5,7.1h84.3c0,0,9.3,0,12.3,8.3l9.5,30.9c0.3,1,1.7,1.1,2.2,0.2l18.3-35.4c0,0,5-9.3,8.2-0.1
		c2.6,7.4,8.3,27.7,10.6,35.7c0.3,1.2,2,1.4,2.6,0.3l20.1-35.5c0,0,0.5-4,8-4s49.5,0,49.5,0s11-0.2,9.5,9.5
		c-1.2,7.5-7.2,22.9-9.9,29.6c-1.5,3.6-5,6.1-8.9,6.2c-0.1,0-0.1,0-0.2,0c-5.2,0-4.5-6.8-4.2-8.8s5.2-18.8,5.2-18.8s1-4.5-2.5-4.5
		s-32.8,0-32.8,0s-3-0.2-5,3.5s-15.8,31.5-15.8,31.5s-1,4.5,4.8,4.8s82.5,0,82.5,0l-5.5,13.2h-96.5c0,0-7-0.2-9-3.5
		c-1.7-2.7-6.8-20-8.4-25.8c-0.2-0.7-1.2-0.9-1.6-0.2l-15.6,25.6c-0.4,0.7-1,1.4-1.7,1.9c-1.7,1.3-5,3.1-8.3,1.5
		c-1.5-0.8-2.6-2.2-3.1-3.8c-2.4-6.8-7-22.4-8.6-27.8c-0.4-1.3-1.6-2.2-3-2.2c-1.7,0.1-3.7,0.8-3,3.9c0.1,0.5,0.3,0.9,0.5,1.2
		c1.1,1.8,1.9,3.9,1.9,6v6.4c0,5.1-2.2,10.1-6.2,13.2c-2.1,1.7-4.8,3-8.2,3.1c-10,0.3-56.7,0-56.7,0s-7.7,0.7-9-5.3
		c0-0.3-0.7-3,0.3-7c0.8-3.2,7.8-19.9,10.6-26.4c1-2.4,2.7-4.6,4.9-6c1.8-1.2,4.2-2.2,6.6-1.6c3.7,0.7,4,5,2.7,9
		c-1.3,4-8.3,19-8.3,19s-2.3,4.7,2.3,5h38.9c2.7,0,5.3-1.5,6.4-3.9c0.4-0.9,0.7-2,0.6-3.3c-0.2-5.1-2.8-5.4-4.2-5.4H59.3
		c-2.6,0-5-1.3-6.3-3.5c-0.4-0.7-0.6-1.4-0.6-2.2c0-3.1,0.6-7.6,4.9-7.9c3.5-0.2,19.2-0.1,24.8,0c2,0,3.9-0.6,5.5-1.8
		c1.3-1,2.4-2.5,2.1-4.5c-0.6-4.5-1.9-6.6-7.5-7.1s-74.5,0-74.5,0L14.5,7.1z"/>
</g>
</svg>
